<svg width="201" height="56" viewBox="0 0 201 56" fill="none" xmlns="http://www.w3.org/2000/svg">
<path d="M7.31217 39.829H0V13.0069H6.77598L7.07995 15.008C9.04157 12.6821 11.4752 12.3331 13.6596 12.3331C16.2461 12.3331 18.9101 13.3653 20.4469 14.9595L20.7433 15.2656L17.4544 21.853L16.8654 21.3397C15.7666 20.3802 14.7565 19.8258 12.8591 19.8258C11.192 19.8258 7.31028 20.3989 7.31028 25.717V39.829H7.31217Z" fill="white"/>
<path d="M36.0188 40.5025C27.4191 40.5025 21.8608 34.9025 21.8608 26.2356C21.8608 17.8561 27.37 12.2263 35.5695 12.2263C39.7099 12.2263 43.1063 13.5441 45.3833 16.0342C47.9962 18.8921 49.1177 23.2825 48.6249 28.7313L48.5777 29.2801H29.4921C30.1529 31.9195 32.628 33.5305 36.1189 33.5305C38.1164 33.5305 40.9559 32.7595 42.2813 31.3315L42.7136 30.8667L47.4582 35.7313L47.0673 36.1531C44.5809 38.8374 40.348 40.5025 36.0188 40.5025ZM29.7016 22.827H41.4544C40.6992 19.5548 37.6161 19.0452 35.7696 19.0452C32.8319 19.0452 30.6607 20.4116 29.7016 22.827Z" fill="white"/>
<path d="M65.532 40.4003C57.5723 40.4003 52.2198 34.7704 52.2198 26.3929C52.2198 17.7521 57.2646 12.3836 65.3791 12.3836C67.792 12.3836 70.9638 13.4849 72.882 15.346V2.30359H80.1904V39.8291H73.3483L73.0595 37.283C70.8316 39.8216 67.8127 40.4003 65.532 40.4003ZM65.9342 19.5124C62.1658 19.5124 59.532 22.3403 59.532 26.391C59.532 30.4062 62.2243 33.3219 65.9342 33.3219C69.1891 33.3219 72.4836 30.9419 72.4836 26.391C72.4836 22.471 69.6686 19.5124 65.9342 19.5124Z" fill="white"/>
<path d="M101.604 39.9318H94.1897L83.1412 12.9548H91.101L94.6542 21.8009L97.8959 31.0129L101.077 21.9316L104.64 12.9548H112.599L101.604 39.9318Z" fill="white"/>
<path d="M122.609 39.8289H115.301V12.9023H122.609V39.8289ZM118.954 10.694C116.866 10.694 114.748 9.21565 114.748 6.38765C114.748 3.56153 116.864 2.08313 118.954 2.08313C121.046 2.08313 123.159 3.56153 123.159 6.38765C123.159 9.21378 121.046 10.694 118.954 10.694Z" fill="white"/>
<path d="M139.628 40.1497C136.907 40.1497 134.649 39.2687 133.099 37.5999C131.479 35.8583 130.658 33.3644 130.658 30.1855V19.7229H126.055V13.0589H130.658V6.52369L137.968 5.71356V13.057H144.771V19.7191H137.917V30.1818C137.917 32.138 138.841 33.217 140.515 33.217C141.331 33.217 142.332 32.9519 143.192 32.5039L143.831 32.1735L145.913 38.7871L145.403 38.9999C143.589 39.7521 142.063 40.0825 140.138 40.1367C139.968 40.146 139.796 40.1497 139.628 40.1497Z" fill="white"/>
<path d="M161.204 40.6093C157.36 40.6093 154.097 39.3512 151.766 36.9731C149.311 34.4699 148.016 30.8112 148.016 26.3928C148.016 17.8827 153.252 12.3835 161.357 12.3835H161.479C164.393 12.3835 167.106 13.5353 168.824 15.415L168.962 13.007H175.987V39.8291H169.073L168.869 37.2867C167.032 39.4147 163.917 40.5608 161.338 40.6075H161.206H161.204V40.6093ZM162.025 19.2529C158.017 19.2529 155.325 22.1201 155.325 26.391C155.325 30.6918 158.017 33.5814 162.025 33.5814C164.064 33.5814 165.771 32.8179 166.96 31.375C168.035 30.072 168.626 28.3118 168.626 26.4171C168.627 22.9657 166.56 19.2529 162.025 19.2529Z" fill="white"/>
<path d="M188.438 39.8291H181.181V2.30359H188.438V39.8291Z" fill="white"/>
<path d="M199.196 1.0248C199.809 1.708 200.117 2.55359 200.117 3.56159C200.117 4.56959 199.809 5.41519 199.196 6.09839C198.582 6.78158 197.744 7.12318 196.679 7.12318C195.622 7.12318 194.787 6.78158 194.172 6.09839C193.558 5.41519 193.25 4.56959 193.25 3.56159C193.25 2.55359 193.558 1.708 194.172 1.0248C194.785 0.341599 195.622 0 196.679 0C197.742 0 198.582 0.341599 199.196 1.0248ZM194.814 5.53839C195.267 6.05545 195.888 6.31492 196.679 6.31492C197.47 6.31492 198.093 6.05545 198.55 5.53839C199.005 5.02132 199.234 4.36239 199.234 3.56159C199.234 2.76079 199.005 2.10186 198.55 1.58106C198.093 1.06026 197.47 0.800798 196.679 0.800798C195.894 0.800798 195.274 1.06026 194.818 1.58106C194.363 2.10186 194.13 2.76079 194.125 3.56159C194.132 4.36239 194.361 5.02132 194.814 5.53839ZM197.429 4.03012C197.682 3.97786 197.884 3.86586 198.037 3.69412C198.188 3.52239 198.271 3.32639 198.284 3.10799C198.297 2.88959 198.265 2.67679 198.189 2.46959C198.114 2.26053 197.969 2.08693 197.753 1.94693C197.538 1.80693 197.285 1.73786 196.994 1.73786H195.342V5.35919H196.139V4.16826H196.585L197.497 5.35919H198.361V5.18372L197.429 4.03012ZM196.992 2.47893C197.202 2.47893 197.347 2.56106 197.429 2.72346C197.512 2.88586 197.51 3.05013 197.423 3.21626C197.338 3.38239 197.191 3.46453 196.981 3.46453H196.137V2.47893H196.992Z" fill="white"/>
<path d="M90.3137 48.1299L87.1702 55.7981H85.471L82.3124 48.1299H84.0267L85.0198 50.5883L86.3281 54.1293L87.5006 50.8981L88.6126 48.1318H90.3137V48.1299Z" fill="white"/>
<path d="M92.0885 45.039C92.4095 44.8747 92.7304 44.8747 93.0514 45.039C93.3723 45.2032 93.5328 45.4926 93.5328 45.9051C93.5328 46.3176 93.3723 46.6088 93.0514 46.7787C92.7304 46.9486 92.4095 46.9486 92.0885 46.7787C91.7675 46.6088 91.6071 46.3176 91.6071 45.9051C91.6071 45.4926 91.7675 45.2032 92.0885 45.039ZM91.7864 48.1152V55.7685H93.3365V48.1152H91.7864Z" fill="white"/>
<path d="M102.81 48.1299L99.6669 55.7981H97.9677L94.8091 48.1299H96.5234L97.5165 50.5883L98.8248 54.1293L99.9973 50.8981L101.109 48.1318H102.81V48.1299Z" fill="white"/>
<path d="M105.442 52.5518C105.512 53.1286 105.765 53.5934 106.201 53.9424C106.637 54.2915 107.19 54.4688 107.863 54.4688C108.263 54.4688 108.667 54.3942 109.073 54.2448C109.479 54.0955 109.792 53.8976 110.013 53.6494L111.021 54.6536C110.649 55.0662 110.177 55.3854 109.6 55.6131C109.024 55.839 108.435 55.9528 107.832 55.9528C106.618 55.9528 105.65 55.587 104.923 54.8552C104.196 54.1235 103.834 53.1454 103.834 51.919C103.834 50.7542 104.194 49.8003 104.915 49.0593C105.637 48.3182 106.575 47.9467 107.729 47.9467C108.973 47.9467 109.939 48.3387 110.63 49.1208C111.321 49.9048 111.597 51.0491 111.457 52.5536H105.442V52.5518ZM109.97 51.2078C109.93 50.6198 109.711 50.1662 109.314 49.847C108.918 49.5278 108.404 49.3672 107.772 49.3672C107.19 49.3672 106.692 49.5278 106.275 49.847C105.859 50.1662 105.591 50.6198 105.471 51.2078H109.97Z" fill="white"/>
<path d="M121.822 50.0174C121.32 49.5433 120.669 49.3062 119.866 49.3062C119.385 49.295 119.002 49.3697 118.716 49.5302C118.431 49.6907 118.288 49.9185 118.288 50.219C118.297 50.7659 118.834 51.0907 119.896 51.1934C120.317 51.2345 120.682 51.2886 120.986 51.3558C121.292 51.423 121.618 51.5369 121.964 51.6955C122.309 51.8561 122.576 52.095 122.761 52.4142C122.946 52.7334 123.038 53.1254 123.038 53.5883C123.029 54.3107 122.738 54.8913 122.166 55.3355C121.594 55.7779 120.833 56.0001 119.879 56.0001C118.435 56.0001 117.308 55.5315 116.496 54.5926L117.308 53.4633C117.95 54.195 118.817 54.5721 119.91 54.5926C120.331 54.5926 120.697 54.5105 121.007 54.3443C121.318 54.1801 121.479 53.9318 121.488 53.6033C121.497 53.2729 121.36 53.0302 121.075 52.8771C120.789 52.7222 120.355 52.6139 119.774 52.5523C117.769 52.3563 116.761 51.5947 116.751 50.2638C116.751 49.491 117.065 48.9105 117.691 48.5241C118.318 48.1377 119.032 47.9435 119.834 47.9435C120.997 47.9435 121.951 48.2833 122.691 48.9646L121.822 50.0174Z" fill="white"/>
<path d="M130.696 48.147H132.201V55.7686H130.726L130.651 54.531C130.42 54.9958 130.061 55.3504 129.574 55.5987C129.087 55.8451 128.595 55.9702 128.092 55.9702C126.98 55.9814 126.067 55.6304 125.355 54.9192C124.643 54.2081 124.286 53.2187 124.286 51.9513C124.286 50.7137 124.651 49.743 125.377 49.0374C126.104 48.3318 127.02 47.979 128.123 47.979C128.653 47.979 129.15 48.1022 129.612 48.3505C130.073 48.5969 130.418 48.9329 130.651 49.3547L130.696 48.147ZM126.529 50.1182C126.068 50.5774 125.838 51.1878 125.838 51.9494C125.838 52.711 126.068 53.3251 126.529 53.7881C126.99 54.2529 127.562 54.4843 128.243 54.4843C128.685 54.4843 129.078 54.391 129.423 54.2062C129.769 54.0195 130.029 53.7787 130.205 53.4801C130.381 53.1814 130.511 52.8547 130.596 52.4982C130.681 52.1435 130.681 51.7851 130.596 51.423C130.511 51.0627 130.381 50.7323 130.205 50.4337C130.029 50.135 129.769 49.8923 129.423 49.7075C129.078 49.5227 128.683 49.4294 128.243 49.4294C127.562 49.4294 126.99 49.659 126.529 50.1182Z" fill="white"/>
<path d="M136.063 44.9622V55.7683H134.513V44.9622H136.063Z" fill="white"/>
<path d="M139.809 48.1472V52.2295C139.809 52.8885 139.987 53.4205 140.343 53.8218C140.7 54.2231 141.193 54.4247 141.826 54.4247C142.428 54.4247 142.921 54.2026 143.308 53.7602C143.695 53.3178 143.887 52.7709 143.887 52.1213V48.149H145.437V55.7855H144.038L143.948 54.6562C143.245 55.4813 142.394 55.8938 141.391 55.8938C140.459 55.8938 139.705 55.569 139.128 54.9194C138.552 54.2698 138.263 53.3794 138.263 52.2445V48.1472H139.809Z" fill="white"/>
<path d="M155.149 44.9622V55.7683H153.69L153.599 54.5624C153.057 55.4696 152.2 55.9232 151.028 55.9232C149.925 55.9232 149.017 55.5685 148.305 54.8573C147.593 54.1461 147.236 53.1773 147.236 51.9509C147.236 50.6928 147.586 49.7165 148.282 49.0203C148.979 48.324 149.883 47.9768 150.997 47.9768C151.488 47.9768 151.987 48.0982 152.495 48.3408C153.001 48.5835 153.369 48.9157 153.599 49.3376V44.9622H155.149ZM149.457 50.1403C149.011 50.5827 148.786 51.1875 148.786 51.9491C148.786 52.7013 149.009 53.3043 149.457 53.7579C149.902 54.2115 150.461 54.4373 151.133 54.4373C151.796 54.4373 152.355 54.2059 152.81 53.7411C153.267 53.2781 153.493 52.6789 153.493 51.9472C153.493 51.2248 153.265 50.6331 152.81 50.1701C152.353 49.7053 151.794 49.4739 151.133 49.4739C150.463 49.4757 149.904 49.6979 149.457 50.1403Z" fill="white"/>
<path d="M163.362 48.147H164.867V55.7686H163.392L163.317 54.531C163.086 54.9958 162.728 55.3504 162.24 55.5987C161.753 55.8451 161.261 55.9702 160.758 55.9702C159.646 55.9814 158.733 55.6304 158.021 54.9192C157.309 54.2081 156.952 53.2187 156.952 51.9513C156.952 50.7137 157.317 49.743 158.043 49.0374C158.77 48.3318 159.686 47.979 160.789 47.979C161.319 47.979 161.816 48.1022 162.278 48.3505C162.739 48.5969 163.084 48.9329 163.317 49.3547L163.362 48.147ZM159.195 50.1182C158.734 50.5774 158.504 51.1878 158.504 51.9494C158.504 52.711 158.734 53.3251 159.195 53.7881C159.656 54.2529 160.228 54.4843 160.909 54.4843C161.351 54.4843 161.744 54.391 162.089 54.2062C162.435 54.0195 162.695 53.7787 162.871 53.4801C163.047 53.1814 163.177 52.8547 163.262 52.4982C163.347 52.1435 163.347 51.7851 163.262 51.423C163.177 51.0627 163.047 50.7323 162.871 50.4337C162.695 50.135 162.435 49.8923 162.089 49.7075C161.744 49.5227 161.349 49.4294 160.909 49.4294C160.228 49.4294 159.658 49.659 159.195 50.1182Z" fill="white"/>
<path d="M168.671 44.9622V49.3376C168.901 48.9139 169.269 48.5816 169.775 48.3408C170.281 48.0982 170.78 47.9768 171.271 47.9768C172.373 47.9768 173.276 48.324 173.978 49.0203C174.68 49.7165 175.031 50.6928 175.031 51.9509C175.031 53.1773 174.675 54.1461 173.963 54.8573C173.251 55.5685 172.343 55.9232 171.24 55.9232C170.068 55.9232 169.211 55.4696 168.669 54.5624L168.578 55.7683H167.119V44.9622H168.671ZM169.452 50.172C168.992 50.6349 168.761 51.2285 168.761 51.9491C168.761 52.6808 168.99 53.2781 169.445 53.7429C169.902 54.2077 170.464 54.4392 171.137 54.4392C171.799 54.4392 172.354 54.2096 172.806 53.7504C173.257 53.2912 173.483 52.692 173.483 51.9491C173.483 51.1856 173.261 50.5827 172.813 50.1403C172.368 49.6979 171.809 49.4757 171.137 49.4757C170.476 49.4757 169.913 49.7072 169.452 50.172Z" fill="white"/>
<path d="M178.447 44.9622V55.7683H176.899V44.9622H178.447Z" fill="white"/>
<path d="M181.921 52.5518C181.991 53.1286 182.244 53.5934 182.68 53.9424C183.116 54.2934 183.669 54.4688 184.341 54.4688C184.743 54.4688 185.145 54.3942 185.551 54.2448C185.957 54.0955 186.271 53.8976 186.492 53.6494L187.5 54.6536C187.128 55.0662 186.656 55.3854 186.078 55.6131C185.502 55.839 184.913 55.9528 184.311 55.9528C183.097 55.9528 182.128 55.587 181.4 54.8552C180.673 54.1235 180.308 53.1454 180.308 51.919C180.308 50.7542 180.669 49.8003 181.392 49.0593C182.113 48.3182 183.052 47.9467 184.205 47.9467C185.449 47.9467 186.416 48.3387 187.107 49.1208C187.798 49.903 188.074 51.0491 187.934 52.5536H181.921V52.5518ZM186.448 51.2078C186.408 50.6198 186.189 50.1662 185.795 49.847C185.398 49.5278 184.885 49.3672 184.252 49.3672C183.671 49.3672 183.172 49.5278 182.755 49.847C182.34 50.1662 182.072 50.6198 181.951 51.2078H186.448Z" fill="white"/>
</svg>
